# xmcd
#
# Track frame offsets:
#	150
#	47700
#	81225
#	121800
#	163200
#	206025
#
# Disc length: 3329 seconds
#
# Revision: 0
# Processed by: cddbd v1.5.1PL2 Copyright (c) Steve Scherf et al.
# Submitted via: dBpowerAMP V4.0
#
DISCID=4e0cff06
DTITLE=French - Study
DYEAR=2006
DGENRE=Country
TTITLE0=Jan
TTITLE1=Feb
TTITLE2=Mar
TTITLE3=Apr
TTITLE4=May
TTITLE5=Jun
EXTD=The French 
EXTT0=
EXTT1=
EXTT2=
EXTT3=
EXTT4=
EXTT5=
PLAYORDER=
